<svg width="52" height="42" viewBox="0 0 52 42" fill="none" xmlns="http://www.w3.org/2000/svg">
<path d="M27.7554 36.4361L27.9933 36.5695L28.2343 36.4417C33.4793 33.6599 37.3076 32.4575 40.8226 32.53C44.2469 32.6006 47.445 33.8824 51.4404 36.2485L50.6705 40.0981C50.6237 40.3318 50.4185 40.5 50.1802 40.5H5.81981C5.58146 40.5 5.37626 40.3318 5.32951 40.0981L4.56135 36.2572C9.43118 33.5273 13.0716 32.4024 16.5092 32.5038C20.0261 32.6076 23.406 33.9961 27.7554 36.4361Z" fill="white" stroke="#FC9F5B"/>
<path d="M51.5 36.1983V10.3157C47.063 8.21035 43.6187 6.98009 40.1506 6.87362C36.6857 6.76724 33.1367 7.7821 28.5 10.2967V37.1654C32.3343 35.13 35.5462 33.709 38.875 33.3948C42.4392 33.0584 46.0728 33.9939 50.6977 36.6384C51.0641 36.8479 51.5 36.5783 51.5 36.1983Z" fill="#7DCFB6" stroke="#FC9F5B"/>
<path d="M4.5 36.1983V10.3157C8.93695 8.21035 12.3813 6.98009 15.8494 6.87362C19.3143 6.76724 22.8633 7.7821 27.5 10.2967V37.1654C23.6657 35.13 20.4538 33.709 17.125 33.3948C13.5608 33.0584 9.92721 33.9939 5.30231 36.6384C4.93592 36.8479 4.5 36.5783 4.5 36.1983Z" fill="#7DCFB6" stroke="#FC9F5B"/>
<path d="M5.5 38C12.8885 34.3231 17.6241 33.9458 28 38.75C38.7384 34.4571 43 33.5 50.5 38.5" stroke="#FC9F5B" stroke-opacity="0.5" stroke-width="0.5" stroke-linecap="round"/>
<path d="M5.5 39C12.8885 35.3231 17.6241 34.9458 28 39.75C38.7384 35.4571 43 34.5 50.5 39.5" stroke="#FC9F5B" stroke-opacity="0.5" stroke-width="0.5" stroke-linecap="round"/>
<path d="M5.5 40C12.8885 36.3231 17.6241 35.9458 28 40.75C38.7384 36.4571 43 35.5 50.5 40.5" stroke="#FC9F5B" stroke-opacity="0.5" stroke-width="0.5" stroke-linecap="round"/>
<path d="M5.5 40.5C5.84988 40.3259 6.19382 40.6591 6.53268 40.5C12.6577 37.6238 17.1269 37.2304 25.1409 40.5C26.0462 40.8693 26.9967 40.1142 28 40.5787C29.06 40.155 30.0569 40.935 31 40.5787C38.9744 37.5668 43.105 37.0587 49.0405 40.5787C49.5145 40.8599 50.0001 40.2454 50.5 40.5787" stroke="#FC9F5B" stroke-opacity="0.5" stroke-width="0.5" stroke-linecap="round"/>
<path d="M6 40.6776C7.17849 40.0911 7.7895 40.9109 8.86666 40.5C13.2127 38.8419 17.0078 38.6747 22.4625 40.5C24.1318 41.0586 25.4565 39.7314 27.5 40.6776C29.5461 39.8596 31.857 41.2352 33.5 40.6776C39.2165 38.7375 42.9 38.4829 47.3812 40.6776C48.3716 41.1626 49.4011 39.9449 50.5 40.6776" stroke="#FC9F5B" stroke-opacity="0.5" stroke-width="0.5" stroke-linecap="round"/>
<path d="M22.7221 32.7535C22.9799 33.2419 23.5849 33.4288 24.0733 33.171C24.5617 32.9131 24.7486 32.3082 24.4907 31.8198L22.7221 32.7535ZM15.2519 18.6045L22.7221 32.7535L24.4907 31.8198L17.0205 17.6707L15.2519 18.6045Z" fill="#FC9F5B"/>
<circle cx="11.6986" cy="11.6601" r="9.5" transform="rotate(9.03763 11.6986 11.6601)" fill="white" stroke="#FC9F5B"/>
<path d="M12.875 5.625V17H10.6641L7.09375 9.88281V17H4.92188V5.625H7.10156L10.7031 12.8203V5.625H12.875Z" fill="#FC9F5B"/>
<path d="M15.6367 15.0977C15.2754 15.0977 14.9548 15.0423 14.6748 14.9316C14.3981 14.821 14.1637 14.6615 13.9717 14.4531C13.7796 14.2415 13.6331 13.986 13.5322 13.6865C13.4313 13.387 13.3809 13.0452 13.3809 12.6611V12.2266C13.3809 11.7969 13.4297 11.4209 13.5273 11.0986C13.625 10.7731 13.7633 10.4997 13.9424 10.2783C14.1214 10.057 14.3411 9.89258 14.6016 9.78516C14.8652 9.67448 15.1631 9.61914 15.4951 9.61914C15.8271 9.61914 16.1185 9.67448 16.3691 9.78516C16.623 9.89258 16.833 10.0553 16.999 10.2734C17.165 10.4883 17.2904 10.7552 17.375 11.0742C17.4596 11.3932 17.502 11.7643 17.502 12.1875V12.8125H13.9619V11.8506H16.1592V11.7285C16.1592 11.5137 16.1364 11.3346 16.0908 11.1914C16.0452 11.0449 15.9736 10.9359 15.876 10.8643C15.7783 10.7926 15.6481 10.7568 15.4854 10.7568C15.3486 10.7568 15.2331 10.7845 15.1387 10.8398C15.0443 10.8952 14.9694 10.9814 14.9141 11.0986C14.8587 11.2158 14.818 11.3688 14.792 11.5576C14.766 11.7432 14.7529 11.9661 14.7529 12.2266V12.6611C14.7529 12.9053 14.7741 13.1104 14.8164 13.2764C14.8587 13.4391 14.9206 13.5726 15.002 13.6768C15.0866 13.7777 15.1891 13.8509 15.3096 13.8965C15.43 13.9388 15.57 13.96 15.7295 13.96C15.9704 13.96 16.1868 13.9176 16.3789 13.833C16.5742 13.7451 16.7402 13.6263 16.877 13.4766L17.4238 14.3066C17.3294 14.4303 17.1992 14.554 17.0332 14.6777C16.8672 14.8014 16.6686 14.9023 16.4375 14.9805C16.2064 15.0586 15.9395 15.0977 15.6367 15.0977Z" fill="#FC9F5B"/>
<path d="M19.0488 13.165L19.6025 10.8301H20.1182L19.9922 11.7793L19.4473 14H19.0166L19.0488 13.165ZM18.8906 10.8301L19.2686 13.1592L19.2656 14H18.7617L18.1025 10.8301H18.8906ZM20.5342 13.1211L20.9004 10.8301H21.6943L21.0322 14H20.5283L20.5342 13.1211ZM20.1885 10.8301L20.7422 13.1475L20.7803 14H20.3496L19.8047 11.7852L19.6816 10.8301H20.1885Z" fill="#FC9F5B"/>
</svg>
